{"title":"the.raid.redemption.2011.1080p.bluray.x264.DUALAUDIO.DTS.Shadoe.","uid":9053522,"size":8778637537,"categoryP":"video","categoryS":"hd___movies","magnet":"?xt=urn:btih:90d100c43540f5280c89754ac907aa3653b9a030&amp;dn=the.raid.redemption.2011.1080p.bluray.x264.DUALAUDIO.DTS.Shadoe.&amp;tr=udp%3A%2F%2Ftracker.openbittorrent.com%3A80&amp;tr=udp%3A%2F%2Fopen.demonii.com%3A1337&amp;tr=udp%3A%2F%2Ftracker.coppersurfer.tk%3A6969&amp;tr=udp%3A%2F%2Fexodus.desync.com%3A6969","seeders":1,"leechers":0,"uploader":"shadoe.federation","files":1,"time":1381905005,"description":"UPDATE AS OF OCTOBER 15TH,2013... Upon request, I will be seeding this until the end of the month and then my rule from last update applies again..\nUPDATE AS OF AUGUST 30th, 2013... Most people just hit and run and lately I have seen no activity for this torrent so I stopped seeding, however if someone wants to download this then just send me a PM for a re-seed :)\nSo for those that want it here is a version that has the English dubbed audio, as well as, for those that like original language tracks, the Indonesian audio and English Subtitles. Enjoy:)\nMediaInfo:\nGeneral\nUnique ID : 204876090534252037835594227393537269013 (0x9A21B323CAB827D5A9D84C8797E45D15)\nComplete name : C:UsersJerry ShadoeVideosA.Turtles.Tale.Sammys.Adventure.2010.1080p.BluRay.X264-AVCHDthe.raid.redemption.2011.1080p.bluray.x264.DUALAUDIO.DTS.Shadoe.mkv\nFormat : Matroska\nFormat version : Version 2\nFile size : 8.18 GiB\nDuration : 1h 41mn\nOverall bit rate : 11.6 Mbps\nMovie name : the.raid.redemption.2011.1080p.bluray.x264.DUALAUDIO.DTS.Shadoe\nEncoded date : UTC 2012-09-06 12:31:24\nWriting application : mkvmerge v2.9.8 ('C'est le bon') built on Aug 13 2009 12:49:06\nWriting library : libebml v0.7.7 + libmatroska v0.8.1\n\nVideo\nID : 1\nFormat : AVC\nFormat/Info : Advanced Video Codec\nFormat profile : &lt;a class=&quot;__cf_email__&quot; href=&quot;/cdn-cgi/l/email-protection&quot; data-cfemail=&quot;8ec6e7e9e6cec2baa0bf&quot;&gt;[email&amp;#160;protected]&lt;/a&gt;&lt;script cf-hash='f9e31' type=&quot;text/javascript&quot;&gt;\n/* &lt;![CDATA[ */!function(){try{var t=&quot;currentScript&quot;in document?document.currentScript:function(){for(var t=document.getElementsByTagName(&quot;script&quot;),e=t.length;e--;)if(t[e].getAttribute(&quot;cf-hash&quot;))return t[e]}();if(t&amp;&amp;t.previousSibling){var e,r,n,i,c=t.previousSibling,a=c.getAttribute(&quot;data-cfemail&quot;);if(a){for(e=&quot;&quot;,r=parseInt(a.substr(0,2),16),n=2;a.length-n;n+=2)i=parseInt(a.substr(n,2),16)^r,e+=String.fromCharCode(i);e=document.createTextNode(e),c.parentNode.replaceChild(e,c)}}}catch(u){}}();/* ]]&gt; */&lt;/script&gt;\nFormat settings, CABAC : Yes\nFormat settings, ReFrames : 4 frames\nFormat settings, GOP : M=1, N=49\nCodec ID : V_MPEG4/ISO/AVC\nDuration : 1h 41mn\nBit rate : 9 321 Kbps\nWidth : 1 920 pixels\nHeight : 1 080 pixels\nDisplay aspect ratio : 16:9\nFrame rate : 23.976 fps\nColor space : YUV\nChroma subsampling : 4:2:0\nBit depth : 8 bits\nScan type : Progressive\nBits/(Pixel*Frame) : 0.187\nStream size : 6.41 GiB (78%)\nTitle : the.raid.redemption.2011.1080p.bluray.x264.DUALAUDIO.DTS.Shadoe\nWriting library : x264 core 125 r2208 d9d2288\nEncoding settings : cabac=1 // deblock=1:0:0 / analyse=0x3:0x113 / me=umh / subme=7 / psy=1 / psy_rd=1.00:0.00 // me_range=16 / chroma_me=1 / trellis=1 / 8x8dct=1 / cqm=0 / deadzone=21,11 / fast_pskip=0 / chroma_qp_offset=-2 / threads=18 / lookahead_threads=3 / sliced_threads=0 / nr=0 / decimate=1 / interlaced=0 / bluray_compat=0 / constrained_intra=0 / bframes=3 / b_pyramid=2 / b_adapt=1 / b_bias=0 / direct=1 / weightb=1 / open_gop=0 / weightp=2 / keyint=250 / keyint_min=23 / scenecut=40 / intra_refresh=0 / rc_lookahead=40 / rc=2pass / mbtree=1 / bitrate=9321 / ratetol=1.0 / qcomp=0.60 / qpmin=0 / qpmax=69 / qpstep=4 / cplxblur=20.0 / qblur=0.5 / ip_ratio=1.40 / aq=1:1.00\nLanguage : English\n\nAudio #1\nID : 2\nFormat : DTS\nFormat/Info : Digital Theater Systems\nCodec ID : A_DTS\nDuration : 1h 41mn\nBit rate mode : Constant\nBit rate : 755 Kbps\nChannel(s) : 6 channels\nChannel positions : Front: L C R, Side: L R, LFE\nSampling rate : 48.0 KHz\nBit depth : 24 bits\nCompression mode : Lossy\nDelay relative to video : 11ms\nStream size : 545 MiB (7%)\nTitle : the.raid.redemption.2011.1080p.bluray.x264.ENGLISH.DTS.Shadoe\nLanguage : English\n\nAudio #2\nID : 3\nFormat : DTS\nFormat/Info : Digital Theater Systems\nCodec ID : A_DTS\nDuration : 1h 41mn\nBit rate mode : Constant\nBit rate : 1 510 Kbps\nChannel(s) : 6 channels\nChannel positions : Front: L C R, Side: L R, LFE\nSampling rate : 48.0 KHz\nBit depth : 24 bits\nCompression mode : Lossy\nDelay relative to video : 11ms\nStream size : 1.07 GiB (13%)\nTitle : the.raid.redemption.2011.1080p.bluray.x264.Indonesian.DTS.Shadoe\nLanguage : Indonesian\n\nText\nID : 4\nFormat : UTF-8\nCodec ID : S_TEXT/UTF8\nCodec ID/Info : UTF-8 Plain Text\nTitle : the.raid.redemption.2011.1080p.bluray.x264.DUALAUDIO.DTS.Shadoe\nLanguage : English\n\nMenu\n00:00:00.000 : en:00:00:00.000\n00:06:15.125 : en:00:06:15.125\n00:12:36.381 : en:00:12:36.381\n00:17:37.765 : en:00:17:37.765\n00:22:45.698 : en:00:22:45.698\n00:27:06.917 : en:00:27:06.917\n00:32:45.881 : en:00:32:45.881\n00:37:27.495 : en:00:37:27.495\n00:42:37.889 : en:00:42:37.889\n00:48:49.927 : en:00:48:49.927\n00:55:16.104 : en:00:55:16.104\n00:59:58.720 : en:00:59:58.720\n01:05:15.829 : en:01:05:15.829\n01:10:53.332 : en:01:10:53.332\n01:16:29.168 : en:01:16:29.168\n01:30:09.779 : en:01:30:09.779","torrent":{"xt":"urn:btih:90d100c43540f5280c89754ac907aa3653b9a030","amp;dn":"the.raid.redemption.2011.1080p.bluray.x264.DUALAUDIO.DTS.Shadoe.","amp;tr":["udp%3A%2F%2Ftracker.openbittorrent.com%3A80","udp%3A%2F%2Fopen.demonii.com%3A1337","udp%3A%2F%2Ftracker.coppersurfer.tk%3A6969","udp%3A%2F%2Fexodus.desync.com%3A6969"],"infoHash":"90d100c43540f5280c89754ac907aa3653b9a030","infoHashBuffer":{"type":"Buffer","data":[144,209,0,196,53,64,245,40,12,137,117,74,201,7,170,54,83,185,160,48]},"announce":[],"urlList":[]}}